<?xml version="1.0" encoding="UTF-8" standalone="no"?>
<!-- Created with Inkscape (http://www.inkscape.org/) -->

<svg
   width="256"
   height="256"
   viewBox="0 0 67.733067 67.733329"
   version="1.1"
   id="svg1"
   xml:space="preserve"
   inkscape:version="1.3.2 (091e20e, 2023-11-25, custom)"
   sodipodi:docname="favicon.svg"
   xmlns:inkscape="http://www.inkscape.org/namespaces/inkscape"
   xmlns:sodipodi="http://sodipodi.sourceforge.net/DTD/sodipodi-0.dtd"
   xmlns="http://www.w3.org/2000/svg"
   xmlns:svg="http://www.w3.org/2000/svg"
   xmlns:rdf="http://www.w3.org/1999/02/22-rdf-syntax-ns#"
   xmlns:cc="http://creativecommons.org/ns#"
   xmlns:dc="http://purl.org/dc/elements/1.1/"><sodipodi:namedview
     id="namedview1"
     pagecolor="#ffffff"
     bordercolor="#000000"
     borderopacity="0.25"
     inkscape:showpageshadow="2"
     inkscape:pageopacity="0.0"
     inkscape:pagecheckerboard="true"
     inkscape:deskcolor="#d1d1d1"
     inkscape:document-units="mm"
     showgrid="false"
     inkscape:zoom="1.8217523"
     inkscape:cx="200.35655"
     inkscape:cy="144.64096"
     inkscape:window-width="1280"
     inkscape:window-height="1001"
     inkscape:window-x="1272"
     inkscape:window-y="-8"
     inkscape:window-maximized="1"
     inkscape:current-layer="svg1" /><defs
     id="defs1" /><circle
     style="display:inline;fill:#ff5555;fill-opacity:1;stroke:none;stroke-width:0.33872;stroke-dasharray:none;stroke-opacity:1"
     id="path2"
     cx="33.866665"
     cy="33.866665"
     r="33.866665"
     inkscape:label="circle" /><path
     style="fill:#ffffff;fill-opacity:1;stroke:none;stroke-width:0.0727321;stroke-dasharray:none;stroke-opacity:1"
     d="m 33.694664,17.033014 c -1.862727,-0.02667 -3.716438,0.255627 -5.495361,0.804345 -1.90446,0.512919 -3.717885,1.315954 -5.489729,2.159302 -0.534004,0.407497 -0.07514,1.120316 0.09036,1.611563 0.443803,1.021563 0.835823,2.08367 1.362443,3.057531 0.437114,0.453307 1.093354,0.0013 1.573685,-0.162751 2.056552,-0.950756 4.205365,-1.843689 6.503033,-1.923905 1.581568,-0.04331 3.240905,-0.201685 4.734928,0.439564 1.515205,0.51 2.79001,1.585047 3.619391,2.944457 0.868757,1.211432 0.997784,2.759739 1.15828,4.176985 -0.03313,0.179027 0.156805,0.669523 -0.155144,0.525126 -1.956704,-0.538715 -3.986678,-0.936357 -6.032235,-0.992521 -2.342354,-0.0792 -4.729041,-0.09092 -7.01942,0.465551 -2.426303,0.729993 -4.838231,1.88618 -6.525106,3.828886 -0.963109,1.164066 -1.62654,2.570556 -2.009613,4.026601 -0.195368,1.30711 -0.185883,2.645322 -0.08779,3.961217 0.290102,2.198444 1.547248,4.161009 3.077322,5.71681 0.493192,0.429093 1.08855,0.720775 1.603123,1.125717 1.70282,1.031253 3.661491,1.621158 5.630586,1.857476 2.456273,0.173362 4.988857,-0.115552 7.246303,-1.142889 1.681117,-0.608158 3.008688,-1.874131 4.218223,-3.146007 0.171611,-0.147013 0.432882,-0.6829 0.401666,-0.18977 0.139277,1.169942 0.08724,2.378612 0.389073,3.519771 0.27133,0.603287 1.05723,0.281664 1.573879,0.362444 1.135875,-0.02893 2.289191,0.05793 3.414252,-0.04279 0.623398,-0.207124 0.316847,-1.011002 0.385815,-1.50544 -0.04631,-6.344581 -0.01104,-12.690888 -0.154712,-19.034096 -0.209206,-2.233863 -0.927529,-4.422146 -2.024364,-6.376327 -0.818293,-1.359186 -1.921682,-2.546942 -3.158874,-3.533594 -0.656569,-0.422692 -1.267484,-0.92226 -2.016988,-1.182593 -1.728509,-0.729796 -3.550692,-1.335245 -5.448056,-1.329594 -0.454729,-0.01823 -0.9099,-0.02426 -1.36497,-0.02107 z m 0.514991,17.960994 c 2.428404,-0.03599 4.873868,0.319511 7.209729,1.072531 0.494622,-0.01696 0.270743,0.532214 0.309618,0.820782 -0.0096,2.437127 -1.116002,4.925367 -3.171214,6.308246 -0.829368,0.665708 -1.755254,1.213067 -2.794347,1.474764 -1.893916,0.571116 -3.958111,0.873686 -5.8816,0.258696 -1.385583,-0.388432 -2.68102,-1.183002 -3.477043,-2.406311 -0.478808,-0.783093 -0.374255,-1.769909 -0.412191,-2.650683 -0.03875,-0.910654 0.236235,-1.847332 0.934984,-2.466459 1.204415,-1.307566 2.984961,-2.030259 4.734139,-2.29684 0.844355,-0.108903 1.697982,-0.112993 2.547925,-0.114726 z"
     id="path4"
     inkscape:label="text" /><metadata
     id="metadata1"><rdf:RDF><cc:Work
         rdf:about=""><cc:license
           rdf:resource="https://github.com/an-distr" /><dc:creator><cc:Agent><dc:title>an(https://github.com/an-distr)</dc:title></cc:Agent></dc:creator></cc:Work></rdf:RDF></metadata></svg>
